<?xml version="1.0" encoding="utf-8"?>
<svg id="svg2" viewBox="-179.3 -35 154 154" xmlns="http://www.w3.org/2000/svg" xmlns:bx="https://boxy-svg.com" width="154px" height="154px"><desc>Source: openclipart.org/detail/209545</desc><defs><filter id="fx0" x="-10%" y="-10%" width="120%" height="120%" filterUnits="userSpaceOnUse" primitiveUnits="userSpaceOnUse"><feComponentTransfer color-interpolation-filters="sRGB"><feFuncR type="discrete" tableValues="0 0"/><feFuncG type="discrete" tableValues="0 0"/><feFuncB type="discrete" tableValues="0 0"/><feFuncA type="linear" slope="0.4" intercept="0"/></feComponentTransfer><feGaussianBlur stdDeviation="1.73194 1.73194"/></filter><bx:export><bx:file format="svg"/></bx:export></defs><path d="M -176.88 27.013 L -176.88 -3.487 L -101.67 -33.987 L -26.435 -3.487 L -26.435 27.013 L -101.67 -3.487 L -176.88 27.013 Z" stroke="#FFFFFF" stroke-width="2" stroke-miterlimit="8" fill="#2E7D32" fill-rule="evenodd" style="stroke-width: 2;"/><path d="M -176.88 58.013 L -176.88 27.013 L -101.67 -3.987 L -26.435 27.013 L -26.435 58.013 L -101.67 27.013 L -176.88 58.013 Z" stroke="#FFFFFF" stroke-width="2" stroke-miterlimit="8" fill="#0288D1" fill-rule="evenodd" style="stroke-width: 2;"/><path d="M -176.88 89.013 L -176.88 58.513 L -101.67 28.013 L -26.435 58.513 L -26.435 89.013 L -101.67 58.513 L -176.88 89.013 Z" stroke="#FFFFFF" stroke-width="2" stroke-miterlimit="8" fill="#F57C00" fill-rule="evenodd" style="stroke-width: 2;"/><path d="M -176.88 119.013 L -176.88 88.513 L -101.67 58.013 L -26.435 88.513 L -26.435 119.013 L -101.67 88.513 L -176.88 119.013 Z" stroke="#FFFFFF" stroke-width="2" stroke-miterlimit="8" fill="#D32F2F" fill-rule="evenodd" style="stroke-width: 2;"/><g filter="url(#fx0)" transform="matrix(1, 0, 0, 1, -141.885792, -3.986417)"><g><path d="M8.60542 7.05567 61.6934 7.05567 61.6934 20.2077 29.4374 61.1997 44.0294 61.1997C45.6934 61.1997 46.8774 61.0877 47.5814 60.8637 48.2854 60.6397 48.7334 60.2557 48.9254 59.7117 49.1174 59.1677 49.2134 58.2877 49.2134 57.0717L49.2134 52.2717 63.0374 52.2717 63.0374 74.1597 7.16542 74.1597 7.16542 61.1997 39.2294 20.2077 25.9814 20.2077C24.3814 20.2077 23.3894 20.5277 23.0054 21.1677 22.6214 21.8077 22.4294 22.9597 22.4294 24.6237L22.4294 28.5597 8.60542 28.5597Z" stroke="#FFFFFF" stroke-linejoin="round" stroke-miterlimit="10" fill-rule="evenodd"/></g></g><path d="M -127.98 1.99 L -74.888 1.99 L -74.888 15.142 L -107.14 56.134 L -92.549 56.134 C -90.888 56.134 -89.704 56.022 -89 55.798 C -88.296 55.574 -87.848 55.19 -87.656 54.646 C -87.464 54.102 -87.368 53.222 -87.368 52.006 L -87.368 47.206 L -73.544 47.206 L -73.544 69.094 L -129.42 69.094 L -129.42 56.134 L -97.349 15.142 L -110.6 15.142 C -112.2 15.142 -113.19 15.462 -113.58 16.102 C -113.96 16.742 -114.15 17.894 -114.15 19.558 L -114.15 23.494 L -127.98 23.494 L -127.98 1.99 Z" stroke="#FFFFFF" stroke-linejoin="round" stroke-miterlimit="10" fill-rule="evenodd" style="stroke-width: 1;"/><text fill="#000000" fill-opacity="0" font-family="Arial,Arial_MSFontService,sans-serif" font-size="67.104" x="-137.48" y="59.028" style="white-space: pre; stroke-width: 1; font-size: 67.1px;">Z</text></svg>